<svg width="40" height="40" viewBox="0 0 40 40" fill="none" xmlns="http://www.w3.org/2000/svg">
<mask id="mask0_1_2868" style="mask-type:alpha" maskUnits="userSpaceOnUse" x="0" y="0" width="40" height="40">
<rect width="40" height="40" fill="#D9D9D9"/>
</mask>
<g mask="url(#mask0_1_2868)">
<path d="M11.75 35.3333C11.3055 34.8611 11.0833 34.3122 11.0833 33.6867C11.0833 33.0622 11.3055 32.5139 11.75 32.0417L23.7916 20L11.7083 7.91666C11.2638 7.47222 11.0416 6.93055 11.0416 6.29166C11.0416 5.65277 11.2777 5.09722 11.75 4.625C12.1944 4.18055 12.7361 3.95833 13.375 3.95833C14.0138 3.95833 14.5694 4.18055 15.0416 4.625L29.0416 18.6667C29.2361 18.8611 29.375 19.0694 29.4583 19.2917C29.5416 19.5139 29.5833 19.75 29.5833 20C29.5833 20.25 29.5416 20.4861 29.4583 20.7083C29.375 20.9305 29.2361 21.1389 29.0416 21.3333L15 35.375C14.5555 35.8194 14.0205 36.0417 13.395 36.0417C12.7705 36.0417 12.2222 35.8056 11.75 35.3333Z" fill="#AAAAAA"/>
</g>
</svg>
