<svg width="40" height="40" viewBox="0 0 40 40" fill="none" xmlns="http://www.w3.org/2000/svg">
<mask id="mask0_1_2869" style="mask-type:alpha" maskUnits="userSpaceOnUse" x="0" y="0" width="40" height="40">
<rect width="40" height="40" fill="#D9D9D9"/>
</mask>
<g mask="url(#mask0_1_2869)">
<path d="M18.3335 33.6668C17.778 33.6668 17.3058 33.4723 16.9169 33.0834C16.528 32.6945 16.3335 32.2223 16.3335 31.6668V21.7918L6.7502 9.54175C6.22243 8.87509 6.13909 8.17342 6.5002 7.43675C6.86131 6.7012 7.47243 6.33342 8.33354 6.33342H31.6669C32.528 6.33342 33.1391 6.7012 33.5002 7.43675C33.8613 8.17342 33.778 8.87509 33.2502 9.54175L23.6669 21.7918V31.7918C23.6669 32.3195 23.4863 32.764 23.1252 33.1251C22.7641 33.4862 22.3196 33.6668 21.7919 33.6668H18.3335ZM20.0002 20.2918L28.0002 10.1251H12.0002L20.0002 20.2918Z" fill="#AAAAAA"/>
</g>
</svg>
